<?xml version="1.0" encoding="UTF-8"?><svg id="a" xmlns="http://www.w3.org/2000/svg" viewBox="0 0 60 60"><defs><style>.b{fill:#748e8f;}</style></defs><path class="b" d="M47.06,47.3c-.97-.97-2.3-1.13-3.57-.42h0c-.82,.46-1.46,.1-1.92-.17-.09-.05-.18-.1-.28-.15-.76-.37-.58-1.07-.5-1.41,.02-.07,.03-.14,.05-.2,.39-2.36,.5-4.18,.35-5.9-.08-.95-.08-1.99,0-3.09,.24-3.17-.06-6.23-.88-9.1-.27-.93-.57-1.99-1-3.01l-.34-.81,.85,.21c.32,.08,.57,.21,.78,.32,.29,.15,.53,.27,.76,.4,.54,.29,1.08,.57,1.64,.82,.85,.37,1.75,.12,2.14-.59,.47-.85,.25-1.77-.57-2.34-.23-.16-.48-.28-.73-.41-.14-.07-.29-.14-.43-.22-.16-.09-.32-.16-.49-.24-.4-.18-.84-.38-1.27-.76l-.95-.82,1.76,.07c.85,.04,1.59,.07,2.31-.07,.95-.19,1.55-.86,1.5-1.67-.05-.87-.72-1.47-1.71-1.53-.46-.03-.93-.02-1.39,0-.28,.02-.68,0-.93-.3-.28-.32-.19-.78-.17-.93,.11-.56,.1-1.16-.02-1.77-.08-.38-.03-.73,.15-1.06,1.39-2.57,2.03-5.49,2.07-9.46,.01-1.07-.38-1.93-1.08-2.38-.66-.42-1.54-.41-2.47,.03-2.55,1.21-4.87,2.65-6.92,4.3-.34,.27-.74,.51-1.34,.38-1-.21-1.91-.25-2.77-.11-.45,.07-.82-.08-1.1-.45-.54-.71-1.29-1.14-1.94-1.48-1.96-1-4.16-1.44-6.28-1.86l-.62-.13c-.18-.04-.4,0-.62,.03-.87,.15-1.61,.65-2.04,1.37-.43,.73-.51,1.59-.22,2.43,.67,1.94,1.61,3.68,2.79,5.16,.8,1,.96,1.94,.54,3.06-.39,1.02-.55,2.05-.46,3.05,.02,.24,.02,.58-.21,.85-.22,.26-.55,.32-.82,.34h-.18c-.68,.06-1.39,.12-2.06,.24-1.02,.18-1.63,.93-1.49,1.82,.14,.86,.96,1.41,2,1.32,.06,0,.12-.02,.18-.04,.23-.05,.54-.12,.92,.03l.84,.34-.79,.45c-.24,.14-.5,.25-.75,.37-.5,.22-.93,.42-1.23,.79-.47,.57-.57,1.1-.31,1.68,.27,.6,.72,.88,1.43,.87,.35,0,.68-.13,.98-.28,.74-.35,1.48-.69,2.3-.83l.33-.05,.14,.3c.21,.45-.02,.77-.12,.9-.91,1.31-1.48,2.78-1.79,4.52-.07,.37-.14,.75-.21,1.12-.29,1.5-.57,2.91-.38,4.37l.15,1.15c.22,1.71,.44,3.42,.67,5.13,.1,.74,.22,1.48,.33,2.21l.22,1.43-.66,.16-.38-.17c-.92-1.13-1.4-2.36-1.44-3.65-.04-1.55-.04-2.73,.02-3.85,.09-1.59-.06-3.18-.43-4.72-.74-3.06-2.96-4.43-6.25-3.84-1.33,.24-2.28,1.5-2.12,2.83,.08,.67,.43,1.12,1.06,1.37,.49,.19,.92,.09,1.41-.33,.57-.49,1.1-.66,1.58-.52,.46,.14,.79,.57,.97,1.26,.31,1.19,.43,2.45,.36,3.84-.19,3.81-.15,6.94,2.09,9.62,.09,.1,.32,.38,.23,.72-.09,.34-.44,.48-.58,.53-.81,.31-1.42,.89-1.7,1.64-.29,.76-.22,1.61,.19,2.4,.22,.44,.39,.86,.5,1.29,.3,1.14,1.09,1.81,2.43,2.05,1.22,.21,2.17-.13,2.9-1.06,.53-.67,.73-1.48,.63-2.62-.05-.53,.11-1,.44-1.32,.34-.33,.84-.48,1.4-.42,.22,.02,.44,.03,.67,.03,1.7,0,1.9,.13,2.21,1.7l.02,.12c.19,.95-.07,1.56-.9,2.08-.71,.44-1.13,1.2-1.12,2.02,0,.83,.44,1.6,1.16,2.04,1.33,.81,2.71,.87,4.11,.18,.71-.35,1.25-1.01,1.43-1.76,.15-.59,.06-1.16-.26-1.6-.62-.87-.82-1.8-1.02-2.71-.04-.2-.09-.4-.13-.6-.03-.13-.12-.51,.1-.83,.2-.29,.54-.36,.82-.39,.61-.07,1.22-.08,1.81-.09,.34,0,.68-.01,1.01-.03,.03,0,.07,0,.1,0,.72,0,1.14,.41,1.19,1.15,.01,.19,.02,.39,.02,.58,.01,.37,.02,.74,.08,1.1,.12,.78-.08,1.33-.67,1.84-.81,.69-1.18,1.69-1.01,2.66,.16,.9,.76,1.61,1.64,1.94,2.09,.79,4.71-.4,5.5-2.47,.51-1.34,.02-2.5-1.27-3.03-.52-.21-.77-.57-.8-1.13l-.02-.53c-.02-.62-.04-1.2-.15-1.77-.16-.88,.14-1.46,.96-1.82,.41-.19,.94-.43,1.46,.07,.06,.06,.15,.11,.25,.17,.32,.2,.85,.52,.72,1.37-.11,.7-.02,1.66,1.01,2.28,.78,.48,1.92,.89,2.88,.14,1.15-.9,2.08-1.7,2.86-2.65,.09-.11,.16-.25,.24-.41,.5-.99,.37-1.89-.4-2.65ZM21.09,5.83c-.16-.33-.06-.55,.01-.66,.22-.32,.65-.27,.82-.25l.57,.14c.52,.13,1.1,.28,1.68,.45,.42,.12,.53,.38,.55,.53,.03,.15,.02,.43-.35,.7-.16,.12-.26,.19-.36,.24-.09,.04-.2,.16-.31,.26-.2,.2-.51,.51-.91,.51-.13,0-.27-.03-.41-.11-.6-.32-.9-.95-1.15-1.51l-.15-.31Zm16.73,35.81c-.01,1.41-.2,2.53-.59,3.51l-.1,.26-.89,.06-.39-1.59c-.24-.95-.48-1.91-.7-2.87-.32-1.35-.48-2.48-.5-3.58-.01-.57-.19-1.03-.51-1.32-.28-.26-.68-.38-1.12-.33-.7,.06-1.15,.53-1.35,1.41-.22,.98-.2,2.02,.07,3.38,.24,1.19,.51,2.38,.77,3.56l.33,1.49c.11,.51,.17,.9-.07,1.2-.24,.3-.64,.33-1.17,.34-.25,0-.51,0-.76,0-.44,0-.87,0-1.31,.02-.04,0-.08,0-.12,0-.37,0-.66-.1-.86-.29-.23-.22-.34-.54-.34-.99,0-2.21-.15-4.51-.44-6.83-.06-.46-.15-.87-.29-1.22-.24-.64-.8-1-1.45-.9-.6,.08-1.08,.63-1.1,1.28-.04,1.09-.03,2.06,.04,2.97,.09,1.14,.08,2.28,.08,3.39,0,.51,0,1.02,0,1.53,.02,.75-.34,.93-.64,.97-.33,.03-.74-.07-.85-.79l-.11-.55c-.33-1.66-.67-3.38-.79-5.11-.06-.8-.19-1.61-.32-2.4-.18-1.09-.37-2.21-.36-3.34,.02-2.94,.37-6.33,2.74-9.11,.55-.65,1.12-.3,1.36-.15,1.24,.76,2.7,1.35,4.47,1.8,1.09,.28,1.77,0,2.33-1,.37-.64,.96-.94,1.49-1.2,.26-.13,.5-.25,.71-.41,.15-.12,.34-.16,.51-.12,.21,.04,.39,.19,.54,.43l.14,.22c.16,.25,.32,.51,.42,.81,.57,1.69,1.15,3.72,1.18,5.9,.04,2.78,.03,5.82,0,9.58Zm.84-26.76l-.04-.06c-.05,.26-.12,.52-.19,.77-.09,.33-.35,.73-1.08,.76-.45,.02-.84,.1-1.18,.24-.44,.19-.74,.5-.84,.89-.1,.38,0,.79,.28,1.16l.08,.1c.18,.22,.64,.79-.05,1.4-.28,.24-.54,.43-.91,.43-.2,0-.42-.05-.7-.18-1.15-.54-1.29-1.37-1.28-2.18,0-.39-.15-.81-.45-1.16-.34-.4-.83-.58-1.33-.49-.51,.09-.93,.46-1.11,.97-.12,.34-.15,.71-.1,1.15,.07,.55-.06,1.25-1.07,1.51-.21,.08-.64,.25-.97-.16-.28-.35-.16-.72-.1-.91,.33-1.08,.01-1.69-1.03-2.02-.72-.23-1.48-.19-2.26-.12-.27,.02-.61,.02-.88-.21-.26-.23-.31-.57-.32-.8-.17-2.99,1.89-6.05,4.78-7.13,3.07-1.14,5.83-.16,7.9,.82,1.45,.69,2.36,1.84,2.58,3.25,.34,.62,.34,1.23,.24,1.82l.02,.15Zm-.57-7.91c-.11-.08-.45-.32-.44-.71,.01-.26,.17-.48,.48-.66,.49-.29,.99-.58,1.48-.86,.12-.07,.47-.27,.79-.06,.33,.21,.29,.63,.26,.87l-.09,.49c-.07,.41-.15,.83-.24,1.26-.03,.14-.12,.57-.5,.7-.06,.02-.13,.03-.19,.03-.19,0-.4-.09-.6-.28h0c-.32-.29-.65-.55-.96-.77Z"/><path class="b" d="M27.83,11.31h0c-1.58,0-3.11,1.43-3.21,3-.04,.55,.15,.93,.56,1.19,.42,.26,.85,.25,1.18-.01,.73-.6,1.34-.65,2.17-.17,.32,.18,.68,.2,1.02,.04,.4-.18,.69-.57,.77-1.02,.14-.74-.07-1.5-.57-2.1-.49-.59-1.19-.92-1.92-.92Z"/><path class="b" d="M37.53,13.17l-.2-.3c-.68-1.07-1.52-1.64-2.44-1.64h-.03c-1.18,.01-2.25,.93-2.79,1.83-.36,.61-.3,1.27,.15,1.69,.15,.14,.63,.58,1.56-.03,.23-.15,.5-.29,.8-.29,.25,0,.52,.09,.81,.36,.49,.45,1.07,.33,1.47,.15,.43-.2,.66-.59,.68-1.2,0-.15,0-.3,0-.46v-.12Z"/></svg>