<?xml version="1.0" encoding="UTF-8"?><svg id="a" xmlns="http://www.w3.org/2000/svg" viewBox="0 0 60 60"><defs><style>.b{fill:#748e8f;}</style></defs><path class="b" d="M59.97,16.21c-.27-2.68-1.6-5-4.17-7.3-.44-.4-1.03-.45-1.69-.15-.53,.24-.8,.68-.82,1.35-.02,.66,.31,1.15,.82,1.68,1.09,1.15,2.16,2.46,2.53,4.18,.22,1.04,0,1.94-.68,2.68-1.98,2.17-4.38,3.48-7.13,3.88l-.2,.03c-.69,.1-1.46,.22-2.14-.23-.7-.46-1.41-.65-2.2-.59-1.16,.1-2.32,.17-3.48,.25l-.8,.05c-2.61,.18-4.9,.21-7,.12-1.8-.08-3.74-.09-5.92,0-1.57,.06-3.14,.23-4.65,.52-.53,.1-1,0-1.35-.29-.38-.32-.58-.84-.57-1.48,0-.45,.1-.89,.19-1.3,.04-.18,.08-.35,.11-.53,.16-.89,.51-1.79,1.91-1.79h.31c.41,0,.8,.01,1.24,.24,1.58,.83,3.04,.77,4.36-.16,1.87-1.33,2.71-3.49,2.14-5.51-.62-2.2-2.57-3.8-4.85-3.98-1.89-.16-3.75,.31-5.68,1.42-.29,.17-.65,.38-1.11,.05-.59-.42-1.28-.55-2.07-.41-.5,.09-.85-.09-1.21-.39-4.54-3.78-9.01-2.07-11.96,.02-.08,.06-.15,.14-.22,.22-.82,.9-.93,1.98-.29,2.96,.56,.88,1.39,1.55,2.69,2.17,.03,.02,.08,.03,.14,.05,.24,.07,.49,.18,.49,.48,0,.28-.23,.41-.47,.53l-.12,.06c-.34,.2-.68,.39-1.03,.59l-.1,.06c-.42,.24-.85,.48-1.27,.73-.23,.13-.45,.26-.68,.38l-.04,.02c-.78,.43-1.52,.83-2.12,1.48-.84,.92-1.05,1.79-.7,2.81,.28,.8,.47,1.65,.66,2.47v.05c.09,.33,.16,.66,.25,.99,.06,.23,.11,.46,.16,.69,.16,.7,.31,1.36,.58,2,.29,.7,.81,1.23,1.41,1.46,.54,.2,1.12,.16,1.69-.12,.36-.18,.68-.08,.92,0,.86,.28,1.55,.25,2.1-.08,.28-.17,.57-.33,.87-.49,.95-.52,1.85-1.01,2.45-1.91,.12-.17,.29-.3,.52-.4l1.55-.66c1.01-.43,2.05-.87,3.09-1.28,1.36-.54,1.47-.51,2.37,.64l.06,.08c.19,.24,.4,.51,.29,.94-.64,2.58-1.01,4.91-1.13,7.14-.06,1.14-.13,2.31,.13,3.47,.27,1.25,.88,2.1,1.86,2.6,.4,.21,.59,.51,.58,.95-.02,1.42,.03,2.89,.07,4.23,.04,1.3,.08,2.65,.07,3.98,0,.8-.01,1.72-1.2,2.2-.72,.3-.9,1.11-.75,1.74,.16,.72,.56,1.05,1.38,1.16,.17,.02,.38,.07,.5,.23,.12,.16,.12,.37,.09,.55-.13,1.03,.28,1.77,1.12,1.99,.12,.03,.24,.05,.36,.05,.65,0,1.25-.46,1.57-1.23l.07-.18c.3-.73,.61-1.49,.79-2.27,.09-.38,.29-.61,.66-.75,.56-.21,1.09-.44,1.46-.9,.33-.4,.44-.91,.3-1.39-.14-.48-.51-.85-1.01-1.01-.42-.13-.85-.08-1.33,.16-.11,.05-.36,.18-.56,.06-.2-.12-.21-.4-.21-.53-.01-.68-.03-1.27-.06-1.83-.09-1.75-.19-3.5-.3-5.25-.02-.27,.04-.47,.16-.6,.13-.14,.32-.21,.58-.22,1.25-.04,2.44-.33,3.44-.62,.29-.08,.59-.17,.91-.27,1.02-.3,2.07-.61,3.14-.78,1.77-.28,3.86-.55,5.88-.4,2.09-.1,4.16,.11,6.15,.32l.72,.07c.75,.07,1.05,.42,1,1.14-.04,.48-.01,.97,0,1.41v.21c.12,2.45,.2,5.07-.13,7.68-.07,.52-.3,.8-.8,.92-.83,.21-1.43,.43-1.95,.74-.83,.49-1.13,1.24-.8,2.02,.33,.77,1.1,1.1,2.02,.86,.35-.09,.69-.21,1-.36,.11-.05,.46-.22,.75-.06,.28,.16,.33,.57,.34,.7,.03,.32,.1,.6,.2,.83,.24,.57,.73,.95,1.29,1.02,.55,.06,1.08-.18,1.44-.66,.28-.38,.35-.84,.21-1.48-.04-.2-.08-.48,.08-.69,.12-.15,.3-.23,.58-.24,.16,0,.34-.06,.48-.11,.59-.2,1.06-.83,1.06-1.43,0-.61-.46-1.24-1.05-1.44-.31-.1-.61-.15-.89-.14-.28,.03-.47-.03-.6-.17-.17-.17-.16-.43-.14-.62,.29-2.87,.22-5.91-.23-9.85-.06-.51-.05-1.11,.41-1.68,.25-.3,.38-.68,.5-1.15,.4-1.58,.48-3.3,.26-5.41-.13-1.24-.57-2.43-.95-3.49-.15-.4-.2-.63-.08-.82,.13-.22,.44-.26,.77-.3,3.47-.44,6.49-2.04,8.99-4.76,1.24-1.35,1.78-2.9,1.6-4.62Zm-13.62,17.81c-.09,.85-.3,1.02-1.17,.93-.43-.04-.86-.09-1.33-.14-.82-.09-1.67-.18-2.5-.23-3-.19-5.95-.14-8.77,.17-1.57,.17-3.08,.6-4.55,1.02-.54,.15-1.07,.3-1.61,.44-.58,.15-1.35,.32-2.18,.32-.7,0-1.34-.12-1.97-.37-.48-.19-.98-.49-1.07-1.29-.1-.86-.03-1.71,.04-2.54,.04-.47,.08-.97,.09-1.45,.01-.9,.22-1.78,.43-2.63,.12-.48,.23-.98,.32-1.48,.08-.47,.34-.73,.83-.83,1.55-.31,2.64-.44,3.66-.44h.02c1,0,2.01,0,3.02,0h3.61c.87,.01,1.75,.01,2.62,0,2.71-.03,5.4-.18,7.98-.45,.87-.09,1.3,.26,1.39,1.09,.09,.78,.3,1.58,.7,2.6,.69,1.75,.61,3.58,.43,5.29ZM24.84,13.74c-.47-.62-.98-.94-1.52-.94h0c-.53,0-1.04,.32-1.47,.92-.03,.04-.07,.09-.12,.14l-.29,.33-.12-.29c-.2-.47-.24-.91-.28-1.34-.03-.3,.13-.52,.47-.66,1.38-.56,2.56-.92,3.88-.86,.91,.05,1.58,.42,2.01,1.11,.5,.8,.28,1.85-.49,2.4-.37,.27-.78,.27-1.25,0-.37-.21-.61-.53-.82-.82ZM8.56,22.68v.34c-.01,.2-.02,.41,0,.62,.1,.92-.61,1.28-1.03,1.48-.26,.13-.5,.08-.72-.15-.37-.38-.76-.57-1.19-.57-.24,0-.5,.06-.76,.18-.19,.09-.36,.1-.49,.03-.14-.07-.22-.21-.27-.43l-.04-.16c-.02-.12-.06-.23-.1-.37-.09-.3-.2-.65-.12-.96,.1-.39,.45-.46,.82-.5,.15-.02,.27-.03,.36-.07,1.41-.56,1.91-1.58,1.43-2.95-.14-.41-.04-.66,.34-.88,1.46-.83,2.78-1.59,4.06-2.49,.32-.26,.49-.2,.6-.11,.18,.14,.17,.34,.15,.53,0,.65,.18,1.11,.52,1.37,.27,.21,.63,.27,1.03,.17,.64-.15,1.09-.95,.98-1.73-.1-.68-.32-1.05-.74-1.25-.13-.06-.31-.17-.32-.36-.02-.19,.14-.33,.27-.41,1.19-.83,2.18-1.34,3.19-1.67,.32-.1,.59-.1,.8,.03,.21,.12,.35,.34,.41,.65,.4,1.83,.39,3.48-.04,5.06-.03,.11-.07,.21-.1,.32-.06,.18-.12,.35-.14,.52-.07,.99-.79,1.36-1.4,1.57-1.25,.42-2.36,.87-3.38,1.37-.25,.12-.43,.15-.58,.08-.2-.09-.28-.32-.33-.5-.24-.9-.75-1.37-1.55-1.42-.45-.04-.85,.09-1.15,.35-.3,.27-.48,.65-.51,1.11-.02,.27-.01,.54,0,.83v.38Zm-1.56-12.45c1.24-.64,3.13-1.38,5.24-.45,.28,.1,.49,.2,.5,.49,0,.24-.15,.36-.34,.47l-.55,.36c-.22,.14-.43,.28-.64,.43-.31,.22-.58,.24-.85,.06-.34-.23-.72-.28-1.14-.28-.13,0-.26,0-.4,.01-.5,.02-1.15,.02-1.77-.27-.09-.04-.38-.17-.38-.41,0-.06,0-.23,.31-.4Z"/><path class="b" d="M15.98,18.48h.04c.48,0,.82-.25,1.06-.75,.11-.24,.16-.51,.15-.8,0-.34-.07-.67-.23-.98-.16-.31-.43-.51-.75-.57h0c-.32-.05-.64,.05-.89,.29-.44,.42-.67,1.45-.44,2,.21,.52,.57,.79,1.07,.81Z"/></svg>